<svg xmlns="http://www.w3.org/2000/svg" version="1.1" xmlns:xlink="http://www.w3.org/1999/xlink" xmlns:svgjs="http://svgjs.dev/svgjs" width="2000" height="1247" viewBox="0 0 2000 1247"><g transform="matrix(1,0,0,1,-1.2121212121212466,0.5048582995951847)"><svg viewBox="0 0 396 247" data-background-color="#f9f9f9" preserveAspectRatio="xMidYMid meet" height="1247" width="2000" xmlns="http://www.w3.org/2000/svg" xmlns:xlink="http://www.w3.org/1999/xlink"><g id="tight-bounds" transform="matrix(1,0,0,1,0.2400000000000091,-0.09999999999999432)"><svg viewBox="0 0 395.52 247.2" height="247.2" width="395.52"><g><svg></svg></g><g><svg viewBox="0 0 395.52 247.2" height="247.2" width="395.52"><g transform="matrix(1,0,0,1,75.54432,98.28112032360589)"><svg viewBox="0 0 244.43135999999998 50.63775935278821" height="50.63775935278821" width="244.43135999999998"><g><svg viewBox="0 0 244.43135999999998 50.63775935278821" height="50.63775935278821" width="244.43135999999998"><g><svg viewBox="0 0 244.43135999999998 50.63775935278821" height="50.63775935278821" width="244.43135999999998"><g><svg viewBox="0 0 244.43135999999998 50.63775935278821" height="50.63775935278821" width="244.43135999999998"><g id="textblocktransform"><svg viewBox="0 0 244.43135999999998 50.63775935278821" height="50.63775935278821" width="244.43135999999998" id="textblock"><g><svg viewBox="0 0 244.43135999999998 50.63775935278821" height="50.63775935278821" width="244.43135999999998"><g transform="matrix(1,0,0,1,0,0)"><svg width="244.43135999999998" viewBox="0.3 -35.35 173.03 35.85" height="50.63775935278821" data-palette-color="#f7ca18"><path d="M0.3-0.25L0.3-0.25 6.5-34.6Q6.55-34.8 6.75-34.8L6.75-34.8 14-34.8Q14.2-34.8 14.25-34.6L14.25-34.6 20.2-0.25Q20.25 0 20 0L20 0 14.45 0Q14.25 0 14.2-0.25L14.2-0.25 13.65-3.9 6.85-3.9 6.3-0.25Q6.25 0 6.05 0L6.05 0 0.5 0Q0.3 0 0.3-0.25ZM10.1-23.3L7.85-9.25 12.65-9.25 10.6-23.3 10.3-25.15 10.1-23.3ZM31.6 0L25.95 0Q25.75 0 25.75-0.25L25.75-0.25 25.75-28.75 19.25-28.75Q19-28.75 19-29L19-29 19.05-34.6Q19.05-34.8 19.25-34.8L19.25-34.8 38.25-34.8Q38.5-34.8 38.5-34.6L38.5-34.6 38.5-29Q38.5-28.75 38.3-28.75L38.3-28.75 31.75-28.75 31.8-0.25Q31.8 0 31.6 0L31.6 0ZM49.7 0.5L49.7 0.5Q47 0.5 44.77-0.88 42.55-2.25 41.2-4.53 39.85-6.8 39.85-9.55L39.85-9.55 39.9-25.4Q39.9-28.15 41.22-30.4 42.55-32.65 44.8-34 47.05-35.35 49.7-35.35L49.7-35.35Q52.4-35.35 54.6-34 56.8-32.65 58.12-30.4 59.45-28.15 59.45-25.4L59.45-25.4 59.5-9.55Q59.5-6.8 58.17-4.53 56.85-2.25 54.62-0.88 52.4 0.5 49.7 0.5ZM49.7-5.55L49.7-5.55Q51.2-5.55 52.32-6.78 53.45-8 53.45-9.55L53.45-9.55 53.4-25.4Q53.4-27.05 52.35-28.2 51.3-29.35 49.7-29.35L49.7-29.35Q48.15-29.35 47.05-28.23 45.95-27.1 45.95-25.4L45.95-25.4 45.95-9.55Q45.95-7.9 47.05-6.73 48.15-5.55 49.7-5.55ZM72.79 0.5L72.79 0.5Q70.14 0.5 67.89-0.88 65.64-2.25 64.32-4.55 62.99-6.85 62.99-9.6L62.99-9.6 63.09-34.6Q63.09-34.8 63.29-34.8L63.29-34.8 68.89-34.8Q69.09-34.8 69.09-34.6L69.09-34.6 69.09-9.6Q69.09-7.9 70.17-6.73 71.24-5.55 72.79-5.55L72.79-5.55Q74.39-5.55 75.47-6.73 76.54-7.9 76.54-9.6L76.54-9.6 76.54-34.6Q76.54-34.8 76.74-34.8L76.74-34.8 82.34-34.8Q82.54-34.8 82.54-34.6L82.54-34.6 82.64-9.6Q82.64-6.8 81.32-4.5 79.99-2.2 77.77-0.85 75.54 0.5 72.79 0.5ZM92.44 0L86.79 0Q86.59 0 86.59-0.25L86.59-0.25 86.69-34.6Q86.69-34.8 86.89-34.8L86.89-34.8 96.99-34.8Q99.69-34.8 101.97-33.48 104.24-32.15 105.59-29.93 106.94-27.7 106.94-24.9L106.94-24.9Q106.94-23.05 106.39-21.58 105.84-20.1 105.09-19.07 104.34-18.05 103.74-17.55L103.74-17.55Q106.44-14.55 106.44-10.5L106.44-10.5 106.49-0.25Q106.49 0 106.24 0L106.24 0 100.59 0Q100.39 0 100.39-0.15L100.39-0.15 100.39-10.5Q100.39-12.3 99.12-13.63 97.84-14.95 95.99-14.95L95.99-14.95 92.69-14.95 92.64-0.25Q92.64 0 92.44 0L92.44 0ZM92.69-28.8L92.69-20.95 96.99-20.95Q98.54-20.95 99.74-22.1 100.94-23.25 100.94-24.9L100.94-24.9Q100.94-26.5 99.77-27.65 98.59-28.8 96.99-28.8L96.99-28.8 92.69-28.8ZM116.54 0L110.89 0Q110.69 0 110.69-0.25L110.69-0.25 110.79-34.6Q110.79-34.8 110.99-34.8L110.99-34.8 121.09-34.8Q123.79-34.8 126.06-33.48 128.34-32.15 129.69-29.93 131.04-27.7 131.04-24.9L131.04-24.9Q131.04-23.05 130.49-21.58 129.94-20.1 129.19-19.07 128.44-18.05 127.84-17.55L127.84-17.55Q130.54-14.55 130.54-10.5L130.54-10.5 130.59-0.25Q130.59 0 130.34 0L130.34 0 124.69 0Q124.49 0 124.49-0.15L124.49-0.15 124.49-10.5Q124.49-12.3 123.21-13.63 121.94-14.95 120.09-14.95L120.09-14.95 116.79-14.95 116.74-0.25Q116.74 0 116.54 0L116.54 0ZM116.79-28.8L116.79-20.95 121.09-20.95Q122.64-20.95 123.84-22.1 125.04-23.25 125.04-24.9L125.04-24.9Q125.04-26.5 123.86-27.65 122.69-28.8 121.09-28.8L121.09-28.8 116.79-28.8ZM151.13 0L134.98 0Q134.78 0 134.78-0.25L134.78-0.25 134.84-34.6Q134.84-34.8 135.03-34.8L135.03-34.8 151.09-34.8Q151.28-34.8 151.28-34.55L151.28-34.55 151.28-28.95Q151.28-28.75 151.09-28.75L151.09-28.75 140.84-28.75 140.84-20.95 151.09-20.95Q151.28-20.95 151.28-20.75L151.28-20.75 151.34-15.1Q151.34-14.9 151.13-14.9L151.13-14.9 140.84-14.9 140.84-6.15 151.13-6.15Q151.34-6.15 151.34-5.9L151.34-5.9 151.34-0.2Q151.34 0 151.13 0L151.13 0ZM166.43 0L160.78 0Q160.58 0 160.58-0.25L160.58-0.25 160.58-28.75 154.08-28.75Q153.83-28.75 153.83-29L153.83-29 153.88-34.6Q153.88-34.8 154.08-34.8L154.08-34.8 173.08-34.8Q173.33-34.8 173.33-34.6L173.33-34.6 173.33-29Q173.33-28.75 173.13-28.75L173.13-28.75 166.58-28.75 166.63-0.25Q166.63 0 166.43 0L166.43 0Z" opacity="1" transform="matrix(1,0,0,1,0,0)" fill="#f7ca18" class="wordmark-text-0" data-fill-palette-color="primary" id="text-0"></path></svg></g></svg></g></svg></g></svg></g></svg></g></svg></g></svg></g><g><path d="M245.816 0c68.262 0 123.6 55.338 123.6 123.6 0 68.262-55.338 123.6-123.6 123.6-57.45 0-105.745-39.196-119.604-92.304l2.362 0c13.801 51.833 61.062 90.021 117.242 90.021 67.001 0 121.317-54.315 121.316-121.317 0-67.001-54.315-121.317-121.316-121.317-56.18 0-103.441 38.187-117.242 90.021l-2.362 0c13.858-53.108 62.154-92.304 119.604-92.304z" fill="#030303" stroke="transparent" data-fill-palette-color="tertiary"></path></g></svg></g><defs></defs></svg><rect width="395.52" height="247.2" fill="none" stroke="none" visibility="hidden"></rect></g></svg></g></svg>